Simulation
nRows=27
nColumns=15
endheader
time  TH_x TH_y TH_z SC_y  SC_z  SC_x  AC_y  AC_z  AC_x  GH_y  GH_z  GH_yy  EL_x  PS_y
1.6000000000000014  0.000000  0.000000  0.000000  -49.153482937400085  17.167539831559672  32.20819730011096  58.91937274962138  6.21741499240287  16.70282753518175  67.44720585357602  61.47731021071278  -75.76737528280523  18.30914554227095  120.000000
1.6320000000000014  0.000000  0.000000  0.000000  -49.18329614882736  17.151936657626727  32.846158848555646  58.894546325127855  5.737155228042459  16.3556380576606  67.55910206950796  61.20852386260054  -75.71644515012167  18.342357291018235  120.000000
1.6640000000000015  0.000000  0.000000  0.000000  -49.12113416466493  17.081049599743746  33.20041129375642  58.85672909352227  5.338248166045014  15.966960795157965  67.76642599044256  60.81164116636362  -75.5957167510958  18.378996136244588  120.000000
1.6960000000000015  0.000000  0.000000  0.000000  -48.96689608389916  16.953728088676865  33.25530944303611  58.80682231532627  5.033860747527329  15.546351902172868  68.05813436010257  60.291587149730304  -75.41718236354282  18.41836542893537  120.000000
1.7280000000000015  0.000000  0.000000  0.000000  -48.721669657360536  16.767610268871  33.001128933753776  58.74591186099054  4.832293524335868  15.103012641451908  68.41452134007696  59.65577238476539  -75.19658335775746  18.45949629444595  120.000000
1.7600000000000016  0.000000  0.000000  0.000000  -48.3877165302753  16.519617671450845  32.43440667221378  58.67548587046454  4.735550976418544  14.645269285328427  68.81074933111717  58.91217365699424  -74.94954660564093  18.501456669528142  120.000000
1.7920000000000016  0.000000  0.000000  0.000000  -47.96895032964628  16.206518220076052  31.558072567522  58.59806455250303  4.739173203590939  14.180753971302819  69.21833338288278  58.07092572023831  -74.68887600366422  18.543215533983116  120.000000
1.8240000000000016  0.000000  0.000000  0.000000  -47.473084219459125  15.825571961298229  30.384214219782127  58.51426145823003  4.833543153652661  13.718141064021019  69.60793157578253  57.14087207539918  -74.4181827058619  18.583122109547045  120.000000
1.8560000000000016  0.000000  0.000000  0.000000  -46.910966790462645  15.37514024820461  28.935358250957695  58.42326411232948  5.005957408360053  13.26669564986792  69.95092414132685  56.1298750824564  -74.1281764863516  18.618607873831934  120.000000
1.8880000000000017  0.000000  0.000000  0.000000  -46.295779305634355  14.855241528455604  27.24513550265001  58.32217064301175  5.243385088542138  12.836220793670636  70.22362048459846  55.04146926063082  -73.79523733712124  18.646168389345885  120.000000
1.9200000000000017  0.000000  0.000000  0.000000  -45.64363141255035  14.268599400110554  25.35790389488983  58.20615310197896  5.535035941747287  12.436231135035708  70.40788327103462  53.87655853511477  -73.38211074997282  18.661548743270725  120.000000
1.9520000000000017  0.000000  0.000000  0.000000  -44.97317246175013  13.621757638688118  23.326633739058003  58.06885978764659  5.873647494632097  12.074651733295966  70.49178507066274  52.63376345350382  -72.8454515451597  18.660988940087126  120.000000
1.9840000000000018  0.000000  0.000000  0.000000  -44.30232314468324  12.924682396210459  21.207437327746845  57.903992678965885  6.254802701755072  11.755664822061009  70.46991408872672  51.31299226234598  -72.14349725115781  18.642695019619634  120.000000
2.016000000000002  0.000000  0.000000  0.000000  -43.646251093638156  12.190316269768779  19.053662990815656  57.70614473363891  6.674576457502087  11.479513665017029  70.34305371578388  49.91602839270854  -71.24627482228114  18.609095320157266  120.000000
2.048000000000002  0.000000  0.000000  0.000000  -43.0165092991853  11.433754554924565  16.911335991926205  57.470588251761015  7.127911418442497  11.242097876409783  70.11748678057316  48.448720418692744  -70.14155868934725  18.568460224509288  120.000000
2.080000000000002  0.000000  0.000000  0.000000  -42.41989474648086  10.670479281788591  14.81644409810927  57.19270171999163  7.607022683475364  11.036579965878502  69.80267309950618  46.91864561878762  -68.83603462546222  18.535459050650932  120.000000
2.112000000000002  0.000000  0.000000  0.000000  -41.85870151449422  9.915353652990476  12.794580209388588  56.868011146968705  8.101867374646432  10.854386480270021  69.41096918681002  45.33516193351452  -67.35427343077033  18.529390105033702  120.000000
2.144000000000002  0.000000  0.000000  0.000000  -41.33159763412888  9.18143896370614  10.86233216889718  56.49277800677664  8.60086601123096  10.687237306853904  68.95483293650264  43.706466397337486  -65.73001410155744  18.57113151932456  120.000000
2.176000000000002  0.000000  0.000000  0.000000  -40.83513274002291  8.479404191011442  9.02918055676402  56.065034536558066  9.092269652477436  10.52821471036021  68.44541033243341  42.04026381499329  -64.00098105660814  18.67883456114203  120.000000
2.208000000000002  0.000000  0.000000  0.000000  -40.36485199044381  7.816855681741098  7.29918547573556  55.58586161527239  9.56470837437891  10.373040884989004  67.88900800105047  40.34270548969063  -62.19930484373731  18.863917215468437  120.000000
2.240000000000002  0.000000  0.000000  0.000000  -39.916055260431044  7.197933894792433  5.672302995678834  55.060948300410715  10.007885876540362  10.220113363385119  67.28525427330078  38.62031466427384  -60.34783639511761  19.12864479654953  120.000000
2.272000000000002  0.000000  0.000000  0.000000  -39.484660355658654  6.623305856685998  4.145697565643072  54.500660420138026  10.412724361550097  10.07040414610371  66.62590040051901  36.87960961786267  -58.456263735344045  19.466470846674525  120.000000
2.304000000000002  0.000000  0.000000  0.000000  -39.0676190964119  6.0900712797363  2.7145376393552563  53.91880196619143  10.771952941772694  9.92593520350469  65.89347757411322  35.127772316767725  -56.5205951557787  19.863941554808893  120.000000
2.336000000000002  0.000000  0.000000  0.000000  -38.6635527444259  5.592336834343575  1.3732162138603423  53.32915020528301  11.080841230587108  9.78921403599226  65.06113129436072  33.37067913823286  -54.52359838548702  20.302787465517852  120.000000
2.368000000000002  0.000000  0.000000  0.000000  -38.2740498325247  5.123306292608718  0.1162956105040169  52.74530090389826  11.338174372091517  9.661820754342125  64.09384884769554  31.615073572658623  -52.43670767138327  20.765023796048684  120.000000
2.400000000000002  0.000000  0.000000  0.000000  -37.90342052981147  4.677305114367458  -1.060373168718766  52.17968908398732  11.546109463191739  9.543876950576871  62.9532858989674  29.868858261270823  -50.22491283223774  21.23539151777224  120.000000
2.432000000000002  0.000000  0.000000  0.000000  -37.557795601498945  4.2489112378944585  -2.1595952222814416  51.641978534456804  11.70882180126882  9.434746518787144  61.60200090367352  28.142164887752593  -47.851371899369795  21.701518639756486  120.000000
